<svg width="97" height="97" viewBox="0 0 97 97" fill="none" xmlns="http://www.w3.org/2000/svg">
<g clip-path="url(#clip0_22_344)">
<path d="M38.0668 8.13916C32.0831 8.13916 26.6595 11.6598 24.2235 17.125L14.3666 39.2398C8.45756 39.6459 3.78906 44.5646 3.78906 50.5766V59.2916C3.78906 64.5231 8.03016 68.7641 13.2617 68.7641H15.8582C15.8722 68.0352 15.8908 67.3064 15.9141 66.5774C15.2974 65.3205 14.9498 63.9075 14.9498 62.4129L14.7773 55.6919C14.7773 50.7215 15.7886 48.8085 19.4781 48.0653C21.2318 47.7119 22.7001 46.517 23.4187 44.8787L35.5906 17.125C38.0264 11.6598 43.4502 8.13916 49.4339 8.13916H38.0668Z" fill="#EEF1FB"/>
<path d="M13.2617 68.7641C8.03016 68.7641 3.78906 64.5231 3.78906 59.2916V50.5766C3.78906 44.5646 8.45756 39.6459 14.3666 39.2398L24.2235 17.125C26.6593 11.6598 32.0829 8.13916 38.0668 8.13916H55.3251C61.0196 8.13916 66.2335 11.3311 68.8233 16.4027L73.6972 25.9478M93.2109 50.5766C93.2109 44.2988 88.1216 39.2095 81.8437 39.2095H30.123M45.6582 25.9478V8.32862M52.4785 68.7641H43.9528M33.5329 61.186C29.3477 61.186 25.9548 64.5789 25.9548 68.7641C25.9548 72.9494 29.3477 76.3422 33.5329 76.3422C37.718 76.3422 41.111 72.9494 41.111 68.7641C41.111 64.5789 37.7183 61.186 33.5329 61.186Z" stroke="#405FF2" stroke-width="3" stroke-miterlimit="10" stroke-linecap="round" stroke-linejoin="round"/>
<path d="M93.2108 68.1959C93.2108 75.4678 87.3158 81.4576 80.0438 81.4576C72.7719 81.4576 66.8769 75.5626 66.8769 68.2906C66.8769 61.0185 72.8666 55.1235 80.1386 55.1235M70.3818 78.7105L58.3516 90.7408" stroke="#FF5CF3" stroke-width="3" stroke-miterlimit="10" stroke-linecap="round" stroke-linejoin="round"/>
</g>
<defs>
<clipPath id="clip0_22_344">
<rect width="97" height="97" fill="white" transform="translate(0 0.469971)"/>
</clipPath>
</defs>
</svg>
