<svg width="14" height="15" viewBox="0 0 14 15" fill="none" xmlns="http://www.w3.org/2000/svg">
<path d="M13.6111 0.809937H5.05557C4.84061 0.809937 4.66667 0.98388 4.66667 1.19884C4.66667 1.4138 4.84061 1.58774 5.05557 1.58774H12.6723L0.113941 14.1461C-0.0379804 14.298 -0.0379804 14.5441 0.113941 14.696C0.189884 14.7719 0.289415 14.8099 0.38891 14.8099C0.488405 14.8099 0.5879 14.7719 0.663879 14.696L13.2222 2.13764V9.75441C13.2222 9.96937 13.3961 10.1433 13.6111 10.1433C13.8261 10.1433 14 9.96937 14 9.75441V1.19884C14 0.98388 13.826 0.809937 13.6111 0.809937Z" fill="#FFFFFF"/>
</svg>

