<svg width="23" height="19" viewBox="0 0 23 19" fill="none" xmlns="http://www.w3.org/2000/svg">
<path d="M18.8938 1.47363H3.72722C2.0838 1.47363 0.748047 2.80938 0.748047 4.4528V15.2861C0.748047 16.9295 2.0838 18.2653 3.72722 18.2653H18.8938C20.5373 18.2653 21.873 16.9295 21.873 15.2861V4.4528C21.873 2.80938 20.5373 1.47363 18.8938 1.47363ZM18.8938 3.09863C18.9188 3.09863 18.9404 3.11163 18.9643 3.11272L12.123 8.24447C11.6442 8.60305 10.9758 8.60305 10.498 8.24447L3.6568 3.11272C3.68172 3.11163 3.7023 3.09863 3.72722 3.09863H18.8938ZM20.248 15.2861C20.248 16.0325 19.6403 16.6403 18.8938 16.6403H3.72722C2.9808 16.6403 2.37305 16.0325 2.37305 15.2861V4.4528C2.37305 4.36938 2.40663 4.2968 2.42072 4.21772L9.52305 9.54447C10.0495 9.9388 10.68 10.136 11.3105 10.136C11.941 10.136 12.5726 9.9388 13.098 9.54447L20.2003 4.21772C20.2144 4.2968 20.248 4.36938 20.248 4.4528V15.2861Z" fill="#050B20"/>
</svg>
