<svg width="41" height="41" viewBox="0 0 41 41" fill="none" xmlns="http://www.w3.org/2000/svg">
<path d="M20.5504 16.2954C22.3961 16.2954 23.9195 17.8188 23.9195 19.6646C23.9195 21.5396 22.3961 23.0337 20.5504 23.0337C18.6754 23.0337 17.1812 21.5396 17.1812 19.6646C17.1812 17.8188 18.6754 16.2954 20.5504 16.2954ZM20.5504 21.8618C21.7516 21.8618 22.7184 20.895 22.7184 19.6646C22.7184 18.4634 21.7516 17.4966 20.5504 17.4966C19.3199 17.4966 18.3531 18.4634 18.3531 19.6646C18.3531 20.895 19.3492 21.8618 20.5504 21.8618ZM24.8277 16.1782C24.8277 16.6177 24.4762 16.9692 24.0367 16.9692C23.5973 16.9692 23.2457 16.6177 23.2457 16.1782C23.2457 15.7388 23.5973 15.3872 24.0367 15.3872C24.4762 15.3872 24.8277 15.7388 24.8277 16.1782ZM27.0543 16.9692C27.1129 18.0532 27.1129 21.3052 27.0543 22.3892C26.9957 23.4438 26.7613 24.3521 25.9996 25.1431C25.2379 25.9048 24.3004 26.1392 23.2457 26.1978C22.1617 26.2563 18.9098 26.2563 17.8258 26.1978C16.7711 26.1392 15.8629 25.9048 15.0719 25.1431C14.3101 24.3521 14.0758 23.4438 14.0172 22.3892C13.9586 21.3052 13.9586 18.0532 14.0172 16.9692C14.0758 15.9146 14.3101 14.9771 15.0719 14.2153C15.8629 13.4536 16.7711 13.2192 17.8258 13.1606C18.9098 13.1021 22.1617 13.1021 23.2457 13.1606C24.3004 13.2192 25.2379 13.4536 25.9996 14.2153C26.7613 14.9771 26.9957 15.9146 27.0543 16.9692ZM25.648 23.5317C25.9996 22.6821 25.9117 20.6313 25.9117 19.6646C25.9117 18.7271 25.9996 16.6763 25.648 15.7974C25.4137 15.2407 24.9742 14.772 24.4176 14.5669C23.5387 14.2153 21.4879 14.3032 20.5504 14.3032C19.5836 14.3032 17.5328 14.2153 16.6832 14.5669C16.0973 14.8013 15.6578 15.2407 15.4234 15.7974C15.0719 16.6763 15.1598 18.7271 15.1598 19.6646C15.1598 20.6313 15.0719 22.6821 15.4234 23.5317C15.6578 24.1177 16.0973 24.5571 16.6832 24.7915C17.5328 25.1431 19.5836 25.0552 20.5504 25.0552C21.4879 25.0552 23.5387 25.1431 24.4176 24.7915C24.9742 24.5571 25.443 24.1177 25.648 23.5317Z" fill="#050B20"/>
<rect fill="black" fill-opacity="0" x="0.178312" y="-1.125" width="13.125" height="17.25"/>
</svg>
