<svg width="41" height="41" viewBox="0 0 41 41" fill="none" xmlns="http://www.w3.org/2000/svg">
<path d="M16.9176 25.2896H14.193V16.5298H16.9176V25.2896ZM15.5406 15.3579C14.691 15.3579 13.9879 14.6255 13.9879 13.7466C13.9879 12.897 14.691 12.1938 15.5406 12.1938C16.4195 12.1938 17.1226 12.897 17.1226 13.7466C17.1226 14.6255 16.4195 15.3579 15.5406 15.3579ZM27.0836 25.2896H24.3883V21.0415C24.3883 20.0161 24.359 18.7271 22.9527 18.7271C21.5465 18.7271 21.3414 19.811 21.3414 20.9536V25.2896H18.6168V16.5298H21.2242V17.731H21.2535C21.6344 17.0571 22.5133 16.3247 23.8316 16.3247C26.5855 16.3247 27.1129 18.1411 27.1129 20.4849V25.2896H27.0836Z" fill="#050B20"/>
<rect fill="black" fill-opacity="0" x="0.178312" y="-1.125" width="13.125" height="17.25"/>
</svg>
