<svg width="41" height="41" viewBox="0 0 41 41" fill="none" xmlns="http://www.w3.org/2000/svg">
<path d="M26.5146 16.6177C26.5146 16.7642 26.5146 16.8813 26.5146 17.0278C26.5146 21.1001 23.4385 25.7583 17.7842 25.7583C16.0264 25.7583 14.415 25.2603 13.0674 24.3813C13.3018 24.4106 13.5361 24.4399 13.7998 24.4399C15.2354 24.4399 16.5537 23.9419 17.6084 23.1216C16.2607 23.0923 15.1182 22.2134 14.7373 20.9829C14.9424 21.0122 15.1182 21.0415 15.3232 21.0415C15.5869 21.0415 15.8799 20.9829 16.1143 20.9243C14.708 20.6313 13.6533 19.4009 13.6533 17.9067V17.8774C14.0635 18.1118 14.5615 18.229 15.0596 18.2583C14.21 17.7017 13.6826 16.7642 13.6826 15.7095C13.6826 15.1235 13.8291 14.5962 14.0928 14.1567C15.6162 16.0024 17.9014 17.2329 20.4502 17.3794C20.3916 17.145 20.3623 16.9106 20.3623 16.6763C20.3623 14.9771 21.7393 13.6001 23.4385 13.6001C24.3174 13.6001 25.1084 13.9517 25.6943 14.5669C26.3682 14.4204 27.042 14.1567 27.6279 13.8052C27.3936 14.5376 26.9248 15.1235 26.2803 15.5044C26.8955 15.4458 27.5107 15.27 28.0381 15.0356C27.6279 15.6509 27.1006 16.1782 26.5146 16.6177Z" fill="#050B20"/>
<rect fill="black" fill-opacity="0" x="0.1875" y="-1.125" width="15" height="17.25"/>
</svg>
