<svg width="118" height="27" viewBox="0 0 118 27" fill="none" xmlns="http://www.w3.org/2000/svg">
<g clip-path="url(#clip0_22_119)">
<g clip-path="url(#clip1_22_119)">
<g clip-path="url(#clip2_22_119)">
<path d="M7.2099 0.719939C11.1999 0.719939 12.9149 2.57494 12.9149 6.35494V7.22994C12.9149 9.74994 12.1449 11.3599 10.4299 12.1649C12.4949 12.9699 13.2999 14.8249 13.2999 17.4149V19.4099C13.2999 23.1899 11.3049 25.2199 7.4549 25.2199H1.3999V0.719939H7.2099ZM6.9649 14.1949H5.2499V21.7199H7.4549C8.7499 21.7199 9.4499 21.1249 9.4499 19.3049V17.1699C9.4499 14.8949 8.7149 14.1949 6.9649 14.1949ZM7.1049 4.21994H5.2499V10.6949H6.7549C8.1899 10.6949 9.0649 10.0649 9.0649 8.10494V6.73994C9.0649 4.98994 8.4699 4.21994 7.1049 4.21994ZM20.9037 6.35494V19.5849C20.9037 21.3349 21.6737 21.9999 22.8987 21.9999C24.1237 21.9999 24.8937 21.3349 24.8937 19.5849V6.35494C24.8937 4.60494 24.1237 3.93994 22.8987 3.93994C21.6737 3.93994 20.9037 4.60494 20.9037 6.35494ZM17.0537 19.3399V6.59994C17.0537 2.67994 19.1187 0.439941 22.8987 0.439941C26.6787 0.439941 28.7437 2.67994 28.7437 6.59994V19.3399C28.7437 23.2599 26.6787 25.4999 22.8987 25.4999C19.1187 25.4999 17.0537 23.2599 17.0537 19.3399ZM41.7579 0.719939H45.3279L41.3029 12.6199L45.6079 25.2199H41.5479L38.3979 15.5249L35.2129 25.2199H31.6079L35.9129 12.6199L31.8879 0.719939H35.8779L38.7829 9.74994L41.7579 0.719939ZM56.2843 16.0849H59.9243V19.3399C59.9243 23.2599 57.9643 25.4999 54.1843 25.4999C50.4043 25.4999 48.4443 23.2599 48.4443 19.3399V6.59994C48.4443 2.67994 50.4043 0.439941 54.1843 0.439941C57.9643 0.439941 59.9243 2.67994 59.9243 6.59994V8.97994H56.2843V6.35494C56.2843 4.60494 55.5143 3.93994 54.2893 3.93994C53.0643 3.93994 52.2943 4.60494 52.2943 6.35494V19.5849C52.2943 21.3349 53.0643 21.9649 54.2893 21.9649C55.5143 21.9649 56.2843 21.3349 56.2843 19.5849V16.0849ZM72.5503 0.719939L76.4703 25.2199H72.5853L71.9203 20.7749H67.1953L66.5303 25.2199H62.9953L66.9153 0.719939H72.5503ZM69.5403 5.05994L67.6853 17.4499H71.3953L69.5403 5.05994ZM91.9832 25.2199H88.0632C87.8532 24.5899 87.7132 24.2049 87.7132 22.2099V18.3599C87.7132 16.0849 86.9432 15.2449 85.1932 15.2449H83.8632V25.2199H80.0132V0.719939H85.8232C89.8132 0.719939 91.5282 2.57494 91.5282 6.35494V8.27994C91.5282 10.7999 90.7232 12.4449 89.0082 13.2499C90.9332 14.0549 91.5632 15.9099 91.5632 18.4649V22.2449C91.5632 23.4349 91.5982 24.3099 91.9832 25.2199ZM85.7182 4.21994H83.8632V11.7449H85.3682C86.8032 11.7449 87.6782 11.1149 87.6782 9.15494V6.73994C87.6782 4.98994 87.0832 4.21994 85.7182 4.21994ZM95.3552 6.59994C95.3552 2.67994 97.2802 0.439941 101.025 0.439941C104.77 0.439941 106.695 2.67994 106.695 6.59994V7.36994H103.055V6.35494C103.055 4.60494 102.355 3.93994 101.13 3.93994C99.9052 3.93994 99.2052 4.60494 99.2052 6.35494C99.2052 11.3949 106.73 12.3399 106.73 19.3399C106.73 23.2599 104.77 25.4999 100.99 25.4999C97.2102 25.4999 95.2502 23.2599 95.2502 19.3399V17.8349H98.8902V19.5849C98.8902 21.3349 99.6602 21.9649 100.885 21.9649C102.11 21.9649 102.88 21.3349 102.88 19.5849C102.88 14.5449 95.3552 13.5999 95.3552 6.59994Z" fill="#050B20"/>
</g>
</g>
</g>
<defs>
<clipPath id="clip0_22_119">
<rect width="108" height="26" fill="white" transform="translate(0 0.219971)"/>
</clipPath>
<clipPath id="clip1_22_119">
<rect width="108" height="26" fill="white" transform="translate(0 0.219971)"/>
</clipPath>
<clipPath id="clip2_22_119">
<rect width="108" height="26" fill="white" transform="translate(0 0.219971)"/>
</clipPath>
</defs>
</svg>
