<svg width="13" height="19" viewBox="0 0 13 19" fill="none" xmlns="http://www.w3.org/2000/svg">
<path d="M10.2835 1.09497H3.61687C2.3527 1.09497 1.3252 2.12247 1.3252 3.38664V15.0533C1.3252 16.3175 2.3527 17.345 3.61687 17.345H10.2835C11.5477 17.345 12.5752 16.3175 12.5752 15.0533V3.38664C12.5752 2.12247 11.5477 1.09497 10.2835 1.09497ZM11.3252 15.0533C11.3252 15.6275 10.8577 16.095 10.2835 16.095H3.61687C3.0427 16.095 2.5752 15.6275 2.5752 15.0533V3.38664C2.5752 2.81247 3.0427 2.34497 3.61687 2.34497H10.2835C10.8577 2.34497 11.3252 2.81247 11.3252 3.38664V15.0533ZM8.40853 4.21997C8.40853 4.56497 8.12853 4.84497 7.78353 4.84497H6.11687C5.77187 4.84497 5.49187 4.56497 5.49187 4.21997C5.49187 3.87497 5.77187 3.59497 6.11687 3.59497H7.78353C8.12853 3.59497 8.40853 3.87497 8.40853 4.21997Z" fill="#050B20"/>
</svg>
