<svg width="12" height="13" viewBox="0 0 12 13" fill="none" xmlns="http://www.w3.org/2000/svg">
<g clip-path="url(#clip0_45_108)">
<path d="M9.40031 12.6001C9.16031 12.6001 8.93365 12.5334 8.72031 12.4001L6.12031 10.7601C6.04031 10.7068 5.96031 10.7068 5.88031 10.7601L3.28031 12.4001C3.04031 12.5601 2.77365 12.6201 2.48031 12.5801C2.18698 12.5401 1.93365 12.4268 1.72031 12.2401C1.45365 12.0001 1.32031 11.6934 1.32031 11.3201V1.8801C1.32031 1.53343 1.44698 1.23343 1.70031 0.980098C1.95365 0.726765 2.25365 0.600098 2.60031 0.600098H9.40031C9.74698 0.600098 10.047 0.726765 10.3003 0.980098C10.5536 1.23343 10.6803 1.53343 10.6803 1.8801V11.3201C10.6803 11.6668 10.5536 11.9668 10.3003 12.2201C10.047 12.4734 9.74698 12.6001 9.40031 12.6001ZM6.00031 9.6801C6.24031 9.6801 6.46698 9.74676 6.68031 9.8801L9.28031 11.5201C9.30698 11.5468 9.34698 11.5601 9.40031 11.5601C9.45365 11.5601 9.50031 11.5401 9.54031 11.5001C9.58031 11.4601 9.60031 11.4001 9.60031 11.3201V1.8801C9.60031 1.8001 9.58031 1.7401 9.54031 1.7001C9.50031 1.6601 9.45365 1.6401 9.40031 1.6401H2.60031C2.54698 1.6401 2.50031 1.6601 2.46031 1.7001C2.42031 1.7401 2.40031 1.8001 2.40031 1.8801V11.3201C2.40031 11.4001 2.43365 11.4668 2.50031 11.5201C2.56698 11.5734 2.64031 11.5734 2.72031 11.5201L5.32031 9.8801C5.53365 9.74676 5.76031 9.6801 6.00031 9.6801Z" fill="#050B20"/>
</g>
<defs>
<clipPath id="clip0_45_108">
<rect width="12" height="12" fill="white" transform="matrix(1 0 0 -1 0 12.6001)"/>
</clipPath>
</defs>
</svg>
