<svg width="19" height="19" viewBox="0 0 19 19" fill="none" xmlns="http://www.w3.org/2000/svg">
<g clip-path="url(#clip0_45_85)">
<path d="M18.9502 11.0699C18.9502 13.1099 18.3502 14.9299 17.1502 16.5299C17.0302 16.6899 16.8702 16.7799 16.6702 16.7999C16.4702 16.8199 16.2902 16.7699 16.1302 16.6499C15.9702 16.5299 15.8802 16.3799 15.8602 16.1999C15.8402 16.0199 15.8902 15.8499 16.0102 15.6899C17.0502 14.3299 17.5702 12.7899 17.5702 11.0699C17.5702 9.70991 17.2302 8.44991 16.5502 7.28991C15.8702 6.12991 14.9402 5.20991 13.7602 4.52991C12.5802 3.84991 11.3102 3.50991 9.9502 3.50991C8.5902 3.50991 7.3202 3.84991 6.1402 4.52991C4.9602 5.20991 4.0302 6.12991 3.3502 7.28991C2.6702 8.44991 2.3302 9.70991 2.3302 11.0699C2.3302 12.7899 2.8502 14.3299 3.8902 15.6899C4.0102 15.8499 4.0602 16.0199 4.0402 16.1999C4.0202 16.3799 3.9302 16.5299 3.7702 16.6499C3.6102 16.7699 3.4302 16.8199 3.2302 16.7999C3.0302 16.7799 2.8702 16.6899 2.7502 16.5299C1.5502 14.9299 0.950195 13.1099 0.950195 11.0699C0.950195 9.46991 1.3502 7.97991 2.1502 6.59991C2.9502 5.21991 4.0402 4.12991 5.4202 3.32991C6.8002 2.52991 8.31019 2.12991 9.9502 2.12991C11.5902 2.12991 13.1002 2.52991 14.4802 3.32991C15.8602 4.12991 16.9502 5.21991 17.7502 6.59991C18.5502 7.97991 18.9502 9.46991 18.9502 11.0699ZM14.3902 6.86991C14.5502 6.98991 14.6302 7.14991 14.6302 7.34991C14.6302 7.54991 14.5502 7.70991 14.3902 7.82991L12.1102 10.1699C12.3102 10.5299 12.4102 10.9099 12.4102 11.3099C12.4102 11.9899 12.1702 12.5699 11.6902 13.0499C11.2102 13.5299 10.6302 13.7699 9.9502 13.7699C9.2702 13.7699 8.6902 13.5299 8.2102 13.0499C7.7302 12.5699 7.4902 11.9899 7.4902 11.3099C7.4902 10.6299 7.7302 10.0499 8.2102 9.56991C8.6902 9.08991 9.2702 8.84991 9.9502 8.84991C10.3502 8.84991 10.7302 8.94991 11.0902 9.14991L13.4302 6.86991C13.5502 6.70991 13.7102 6.62991 13.9102 6.62991C14.1102 6.62991 14.2702 6.70991 14.3902 6.86991ZM11.0302 11.3099C11.0302 11.0299 10.9202 10.7899 10.7002 10.5899C10.4802 10.3899 10.2302 10.2899 9.9502 10.2899C9.6702 10.2899 9.4202 10.3899 9.2002 10.5899C8.9802 10.7899 8.87019 11.0299 8.87019 11.3099C8.87019 11.5899 8.9802 11.8399 9.2002 12.0599C9.4202 12.2799 9.6702 12.3899 9.9502 12.3899C10.2302 12.3899 10.4802 12.2799 10.7002 12.0599C10.9202 11.8399 11.0302 11.5899 11.0302 11.3099Z" fill="#050B20"/>
</g>
<defs>
<clipPath id="clip0_45_85">
<rect width="18" height="18" fill="white" transform="matrix(1 0 0 -1 0.950195 18.45)"/>
</clipPath>
</defs>
</svg>
