<svg width="19" height="19" viewBox="0 0 19 19" fill="none" xmlns="http://www.w3.org/2000/svg">
<g clip-path="url(#clip0_1_1816)">
<path d="M18.25 11.4701C18.25 13.5101 17.65 15.3301 16.45 16.9301C16.33 17.0901 16.17 17.1801 15.97 17.2001C15.77 17.2201 15.59 17.1701 15.43 17.0501C15.27 16.9301 15.18 16.7801 15.16 16.6001C15.14 16.4201 15.19 16.2501 15.31 16.0901C16.35 14.7301 16.87 13.1901 16.87 11.4701C16.87 10.1101 16.53 8.85006 15.85 7.69006C15.17 6.53006 14.24 5.61006 13.06 4.93006C11.88 4.25006 10.61 3.91006 9.25 3.91006C7.89 3.91006 6.62 4.25006 5.44 4.93006C4.26 5.61006 3.33 6.53006 2.65 7.69006C1.97 8.85006 1.63 10.1101 1.63 11.4701C1.63 13.1901 2.15 14.7301 3.19 16.0901C3.31 16.2501 3.36 16.4201 3.34 16.6001C3.32 16.7801 3.23 16.9301 3.07 17.0501C2.91 17.1701 2.73 17.2201 2.53 17.2001C2.33 17.1801 2.17 17.0901 2.05 16.9301C0.85 15.3301 0.25 13.5101 0.25 11.4701C0.25 9.87006 0.65 8.38006 1.45 7.00006C2.25 5.62006 3.34 4.53006 4.72 3.73006C6.1 2.93006 7.61 2.53006 9.25 2.53006C10.89 2.53006 12.4 2.93006 13.78 3.73006C15.16 4.53006 16.25 5.62006 17.05 7.00006C17.85 8.38006 18.25 9.87006 18.25 11.4701ZM13.69 7.27006C13.85 7.39006 13.93 7.55006 13.93 7.75006C13.93 7.95006 13.85 8.11006 13.69 8.23006L11.41 10.5701C11.61 10.9301 11.71 11.3101 11.71 11.7101C11.71 12.3901 11.47 12.9701 10.99 13.4501C10.51 13.9301 9.93 14.1701 9.25 14.1701C8.57 14.1701 7.99 13.9301 7.51 13.4501C7.03 12.9701 6.79 12.3901 6.79 11.7101C6.79 11.0301 7.03 10.4501 7.51 9.97006C7.99 9.49006 8.57 9.25006 9.25 9.25006C9.65 9.25006 10.03 9.35006 10.39 9.55006L12.73 7.27006C12.85 7.11006 13.01 7.03006 13.21 7.03006C13.41 7.03006 13.57 7.11006 13.69 7.27006ZM10.33 11.7101C10.33 11.4301 10.22 11.1901 10 10.9901C9.78 10.7901 9.53 10.6901 9.25 10.6901C8.97 10.6901 8.72 10.7901 8.5 10.9901C8.28 11.1901 8.17 11.4301 8.17 11.7101C8.17 11.9901 8.28 12.2401 8.5 12.4601C8.72 12.6801 8.97 12.7901 9.25 12.7901C9.53 12.7901 9.78 12.6801 10 12.4601C10.22 12.2401 10.33 11.9901 10.33 11.7101Z" fill="#050B20"/>
</g>
<defs>
<clipPath id="clip0_1_1816">
<rect width="18" height="18" fill="white" transform="matrix(1 0 0 -1 0.25 18.85)"/>
</clipPath>
</defs>
</svg>
