<svg width="19" height="19" viewBox="0 0 19 19" fill="none" xmlns="http://www.w3.org/2000/svg">
<g clip-path="url(#clip0_45_88)">
<path d="M10.9896 3.80995C10.9896 3.64995 10.9396 3.51995 10.8396 3.41995C10.7396 3.31995 10.6096 3.26995 10.4496 3.26995H4.80961C4.64961 3.26995 4.51961 3.31995 4.41961 3.41995C4.31961 3.51995 4.26961 3.64995 4.26961 3.80995V8.30995C4.26961 8.46995 4.31961 8.60995 4.41961 8.72995C4.51961 8.84995 4.64961 8.90995 4.80961 8.90995H10.4496C10.6096 8.90995 10.7396 8.84995 10.8396 8.72995C10.9396 8.60995 10.9896 8.46995 10.9896 8.30995V3.80995ZM9.84961 7.76995H5.34961V4.40995H9.84961V7.76995ZM17.4696 4.40995L15.1896 3.32995C15.0696 3.24995 14.9296 3.22995 14.7696 3.26995C14.6096 3.30995 14.4996 3.39995 14.4396 3.53995C14.3796 3.67995 14.3696 3.82995 14.4096 3.98995C14.4496 4.14995 14.5496 4.24995 14.7096 4.28995L15.5496 4.76995L15.4896 4.94995C15.4896 5.30995 15.5996 5.62995 15.8196 5.90995C16.0396 6.18995 16.3096 6.38995 16.6296 6.50995V13.35C16.6296 13.51 16.5696 13.65 16.4496 13.77C16.3296 13.89 16.1996 13.95 16.0596 13.95C15.9196 13.95 15.7896 13.89 15.6696 13.77C15.5496 13.65 15.4896 13.51 15.4896 13.35V8.84995C15.4896 8.20995 15.2596 7.62995 14.7996 7.10995C14.3396 6.58995 13.8296 6.26995 13.2696 6.14995V2.66995C13.2696 2.06995 13.0496 1.54995 12.6096 1.10995C12.1696 0.669952 11.6496 0.449951 11.0496 0.449951H4.26961C3.66961 0.449951 3.13961 0.669952 2.67961 1.10995C2.21961 1.54995 1.98961 2.06995 1.98961 2.66995V15.27L1.20961 15.69C0.969609 15.81 0.849609 15.97 0.849609 16.17V17.85C0.849609 18.01 0.909609 18.15 1.02961 18.27C1.14961 18.39 1.28961 18.45 1.44961 18.45H13.8096C13.9696 18.45 14.0996 18.39 14.1996 18.27C14.2996 18.15 14.3496 18.01 14.3496 17.85V16.17C14.3496 15.97 14.2496 15.81 14.0496 15.69L13.2696 15.27V7.28995C13.5496 7.40995 13.7996 7.61995 14.0196 7.91995C14.2396 8.21995 14.3496 8.52995 14.3496 8.84995V13.35C14.3496 13.83 14.5196 14.24 14.8596 14.58C15.1996 14.92 15.5996 15.09 16.0596 15.09C16.5196 15.09 16.9196 14.92 17.2596 14.58C17.5996 14.24 17.7696 13.83 17.7696 13.35V4.94995C17.7696 4.70995 17.6696 4.52995 17.4696 4.40995ZM13.2696 17.31H1.98961V16.53L2.82961 16.11C3.02961 16.03 3.12961 15.87 3.12961 15.63V2.66995C3.12961 2.38995 3.23961 2.13995 3.45961 1.91995C3.67961 1.69995 3.94961 1.58995 4.26961 1.58995H11.0496C11.3296 1.58995 11.5796 1.69995 11.7996 1.91995C12.0196 2.13995 12.1296 2.38995 12.1296 2.66995V15.63C12.1296 15.87 12.2296 16.03 12.4296 16.11L13.2696 16.53V17.31Z" fill="#050B20"/>
</g>
<defs>
<clipPath id="clip0_45_88">
<rect width="18" height="18" fill="white" transform="matrix(1 0 0 -1 0.30957 18.45)"/>
</clipPath>
</defs>
</svg>
