<svg width="19" height="19" viewBox="0 0 19 19" fill="none" xmlns="http://www.w3.org/2000/svg">
<g clip-path="url(#clip0_1_1819)">
<path d="M11.1605 4.21004C11.1605 4.05004 11.1105 3.92004 11.0105 3.82004C10.9105 3.72004 10.7805 3.67004 10.6205 3.67004H4.98051C4.82051 3.67004 4.69051 3.72004 4.59051 3.82004C4.49051 3.92004 4.44051 4.05004 4.44051 4.21004V8.71004C4.44051 8.87004 4.49051 9.01004 4.59051 9.13004C4.69051 9.25004 4.82051 9.31004 4.98051 9.31004H10.6205C10.7805 9.31004 10.9105 9.25004 11.0105 9.13004C11.1105 9.01004 11.1605 8.87004 11.1605 8.71004V4.21004ZM10.0205 8.17004H5.52051V4.81004H10.0205V8.17004ZM17.6405 4.81004L15.3605 3.73004C15.2405 3.65004 15.1005 3.63004 14.9405 3.67004C14.7805 3.71004 14.6705 3.80004 14.6105 3.94004C14.5505 4.08004 14.5405 4.23004 14.5805 4.39004C14.6205 4.55004 14.7205 4.65004 14.8805 4.69004L15.7205 5.17004L15.6605 5.35004C15.6605 5.71004 15.7705 6.03004 15.9905 6.31004C16.2105 6.59004 16.4805 6.79004 16.8005 6.91004V13.75C16.8005 13.91 16.7405 14.05 16.6205 14.17C16.5005 14.29 16.3705 14.35 16.2305 14.35C16.0905 14.35 15.9605 14.29 15.8405 14.17C15.7205 14.05 15.6605 13.91 15.6605 13.75V9.25004C15.6605 8.61004 15.4305 8.03004 14.9705 7.51004C14.5105 6.99004 14.0005 6.67004 13.4405 6.55004V3.07004C13.4405 2.47004 13.2205 1.95004 12.7805 1.51004C12.3405 1.07004 11.8205 0.850037 11.2205 0.850037H4.44051C3.84051 0.850037 3.31051 1.07004 2.85051 1.51004C2.39051 1.95004 2.16051 2.47004 2.16051 3.07004V15.67L1.38051 16.09C1.14051 16.21 1.02051 16.37 1.02051 16.57V18.25C1.02051 18.41 1.08051 18.55 1.20051 18.67C1.32051 18.79 1.46051 18.85 1.62051 18.85H13.9805C14.1405 18.85 14.2705 18.79 14.3705 18.67C14.4705 18.55 14.5205 18.41 14.5205 18.25V16.57C14.5205 16.37 14.4205 16.21 14.2205 16.09L13.4405 15.67V7.69004C13.7205 7.81004 13.9705 8.02004 14.1905 8.32004C14.4105 8.62004 14.5205 8.93004 14.5205 9.25004V13.75C14.5205 14.23 14.6905 14.64 15.0305 14.98C15.3705 15.32 15.7705 15.49 16.2305 15.49C16.6905 15.49 17.0905 15.32 17.4305 14.98C17.7705 14.64 17.9405 14.23 17.9405 13.75V5.35004C17.9405 5.11004 17.8405 4.93004 17.6405 4.81004ZM13.4405 17.71H2.16051V16.93L3.00051 16.51C3.20051 16.43 3.30051 16.27 3.30051 16.03V3.07004C3.30051 2.79004 3.41051 2.54004 3.63051 2.32004C3.85051 2.10004 4.12051 1.99004 4.44051 1.99004H11.2205C11.5005 1.99004 11.7505 2.10004 11.9705 2.32004C12.1905 2.54004 12.3005 2.79004 12.3005 3.07004V16.03C12.3005 16.27 12.4005 16.43 12.6005 16.51L13.4405 16.93V17.71Z" fill="#050B20"/>
</g>
<defs>
<clipPath id="clip0_1_1819">
<rect width="18" height="18" fill="white" transform="matrix(1 0 0 -1 0.480469 18.85)"/>
</clipPath>
</defs>
</svg>
