<svg width="19" height="19" viewBox="0 0 19 19" fill="none" xmlns="http://www.w3.org/2000/svg">
<path d="M3.23043 2.53004C2.67043 2.53004 2.19043 2.73004 1.79043 3.13004C1.39043 3.53004 1.19043 4.02004 1.19043 4.60004C1.19043 5.18004 1.39043 5.67004 1.79043 6.07004C2.19043 6.47004 2.67043 6.67004 3.23043 6.67004C3.79043 6.67004 4.27043 6.47004 4.67043 6.07004C5.07043 5.67004 5.27043 5.18004 5.27043 4.60004C5.27043 4.02004 5.07043 3.53004 4.67043 3.13004C4.27043 2.73004 3.79043 2.53004 3.23043 2.53004ZM3.23043 3.67004C3.47043 3.67004 3.69043 3.76004 3.89043 3.94004C4.09043 4.12004 4.19043 4.34004 4.19043 4.60004C4.19043 4.86004 4.09043 5.08004 3.89043 5.26004C3.69043 5.44004 3.47043 5.53004 3.23043 5.53004C2.99043 5.53004 2.77043 5.44004 2.57043 5.26004C2.37043 5.08004 2.27043 4.86004 2.27043 4.60004C2.27043 4.34004 2.37043 4.12004 2.57043 3.94004C2.77043 3.76004 2.99043 3.67004 3.23043 3.67004ZM3.23043 13.03C2.67043 13.03 2.19043 13.23 1.79043 13.63C1.39043 14.03 1.19043 14.52 1.19043 15.1C1.19043 15.68 1.39043 16.17 1.79043 16.57C2.19043 16.97 2.67043 17.17 3.23043 17.17C3.79043 17.17 4.27043 16.97 4.67043 16.57C5.07043 16.17 5.27043 15.68 5.27043 15.1C5.27043 14.52 5.07043 14.03 4.67043 13.63C4.27043 13.23 3.79043 13.03 3.23043 13.03ZM3.23043 14.17C3.47043 14.17 3.69043 14.26 3.89043 14.44C4.09043 14.62 4.19043 14.84 4.19043 15.1C4.19043 15.36 4.09043 15.58 3.89043 15.76C3.69043 15.94 3.47043 16.03 3.23043 16.03C2.99043 16.03 2.77043 15.94 2.57043 15.76C2.37043 15.58 2.27043 15.36 2.27043 15.1C2.27043 14.84 2.37043 14.62 2.57043 14.44C2.77043 14.26 2.99043 14.17 3.23043 14.17ZM9.23043 2.53004C8.67043 2.53004 8.19043 2.73004 7.79043 3.13004C7.39043 3.53004 7.19043 4.02004 7.19043 4.60004C7.19043 5.18004 7.39043 5.67004 7.79043 6.07004C8.19043 6.47004 8.67043 6.67004 9.23043 6.67004C9.79043 6.67004 10.2704 6.47004 10.6704 6.07004C11.0704 5.67004 11.2704 5.18004 11.2704 4.60004C11.2704 4.02004 11.0704 3.53004 10.6704 3.13004C10.2704 2.73004 9.79043 2.53004 9.23043 2.53004ZM9.23043 3.67004C9.47043 3.67004 9.69043 3.76004 9.89043 3.94004C10.0904 4.12004 10.1904 4.34004 10.1904 4.60004C10.1904 4.86004 10.0904 5.08004 9.89043 5.26004C9.69043 5.44004 9.47043 5.53004 9.23043 5.53004C8.99043 5.53004 8.77043 5.44004 8.57043 5.26004C8.37043 5.08004 8.27043 4.86004 8.27043 4.60004C8.27043 4.34004 8.37043 4.12004 8.57043 3.94004C8.77043 3.76004 8.99043 3.67004 9.23043 3.67004ZM9.23043 13.03C8.67043 13.03 8.19043 13.23 7.79043 13.63C7.39043 14.03 7.19043 14.52 7.19043 15.1C7.19043 15.68 7.39043 16.17 7.79043 16.57C8.19043 16.97 8.67043 17.17 9.23043 17.17C9.79043 17.17 10.2704 16.97 10.6704 16.57C11.0704 16.17 11.2704 15.68 11.2704 15.1C11.2704 14.52 11.0704 14.03 10.6704 13.63C10.2704 13.23 9.79043 13.03 9.23043 13.03ZM9.23043 14.17C9.47043 14.17 9.69043 14.26 9.89043 14.44C10.0904 14.62 10.1904 14.84 10.1904 15.1C10.1904 15.36 10.0904 15.58 9.89043 15.76C9.69043 15.94 9.47043 16.03 9.23043 16.03C8.99043 16.03 8.77043 15.94 8.57043 15.76C8.37043 15.58 8.27043 15.36 8.27043 15.1C8.27043 14.84 8.37043 14.62 8.57043 14.44C8.77043 14.26 8.99043 14.17 9.23043 14.17ZM15.2304 2.53004C14.6704 2.53004 14.1904 2.73004 13.7904 3.13004C13.3904 3.53004 13.1904 4.02004 13.1904 4.60004C13.1904 5.18004 13.3904 5.67004 13.7904 6.07004C14.1904 6.47004 14.6704 6.67004 15.2304 6.67004C15.7904 6.67004 16.2704 6.47004 16.6704 6.07004C17.0704 5.67004 17.2704 5.18004 17.2704 4.60004C17.2704 4.02004 17.0704 3.53004 16.6704 3.13004C16.2704 2.73004 15.7904 2.53004 15.2304 2.53004ZM15.2304 3.67004C15.4704 3.67004 15.6904 3.76004 15.8904 3.94004C16.0904 4.12004 16.1904 4.34004 16.1904 4.60004C16.1904 4.86004 16.0904 5.08004 15.8904 5.26004C15.6904 5.44004 15.4704 5.53004 15.2304 5.53004C14.9904 5.53004 14.7704 5.44004 14.5704 5.26004C14.3704 5.08004 14.2704 4.86004 14.2704 4.60004C14.2704 4.34004 14.3704 4.12004 14.5704 3.94004C14.7704 3.76004 14.9904 3.67004 15.2304 3.67004ZM15.2304 13.03C14.6704 13.03 14.1904 13.23 13.7904 13.63C13.3904 14.03 13.1904 14.52 13.1904 15.1C13.1904 15.68 13.3904 16.17 13.7904 16.57C14.1904 16.97 14.6704 17.17 15.2304 17.17C15.7904 17.17 16.2704 16.97 16.6704 16.57C17.0704 16.17 17.2704 15.68 17.2704 15.1C17.2704 14.52 17.0704 14.03 16.6704 13.63C16.2704 13.23 15.7904 13.03 15.2304 13.03ZM15.2304 14.17C15.4704 14.17 15.6904 14.26 15.8904 14.44C16.0904 14.62 16.1904 14.84 16.1904 15.1C16.1904 15.36 16.0904 15.58 15.8904 15.76C15.6904 15.94 15.4704 16.03 15.2304 16.03C14.9904 16.03 14.7704 15.94 14.5704 15.76C14.3704 15.58 14.2704 15.36 14.2704 15.1C14.2704 14.84 14.3704 14.62 14.5704 14.44C14.7704 14.26 14.9904 14.17 15.2304 14.17ZM2.69043 6.07004V13.57C2.69043 13.73 2.74043 13.87 2.84043 13.99C2.94043 14.11 3.07043 14.17 3.23043 14.17C3.39043 14.17 3.52043 14.11 3.62043 13.99C3.72043 13.87 3.77043 13.75 3.77043 13.63V6.07004C3.77043 5.95004 3.72043 5.83004 3.62043 5.71004C3.52043 5.59004 3.39043 5.53004 3.23043 5.53004C3.07043 5.53004 2.94043 5.59004 2.84043 5.71004C2.74043 5.83004 2.69043 5.95004 2.69043 6.07004ZM8.69043 6.07004V13.57C8.69043 13.73 8.74043 13.87 8.84043 13.99C8.94043 14.11 9.07043 14.17 9.23043 14.17C9.39043 14.17 9.52043 14.11 9.62043 13.99C9.72043 13.87 9.77043 13.75 9.77043 13.63V6.07004C9.77043 5.95004 9.72043 5.83004 9.62043 5.71004C9.52043 5.59004 9.39043 5.53004 9.23043 5.53004C9.07043 5.53004 8.94043 5.59004 8.84043 5.71004C8.74043 5.83004 8.69043 5.95004 8.69043 6.07004ZM14.6904 6.07004V9.07004C14.6904 9.15004 14.6704 9.21004 14.6304 9.25004C14.5904 9.29004 14.5504 9.31004 14.5104 9.31004H3.23043C3.07043 9.31004 2.94043 9.36004 2.84043 9.46004C2.74043 9.56004 2.69043 9.69004 2.69043 9.85004C2.69043 10.01 2.74043 10.14 2.84043 10.24C2.94043 10.34 3.07043 10.39 3.23043 10.39H14.5104C14.8704 10.39 15.1704 10.27 15.4104 10.03C15.6504 9.79004 15.7704 9.47004 15.7704 9.07004V6.13004C15.7704 5.97004 15.7204 5.83004 15.6204 5.71004C15.5204 5.59004 15.3904 5.53004 15.2304 5.53004C15.0704 5.53004 14.9404 5.59004 14.8404 5.71004C14.7404 5.83004 14.6904 5.95004 14.6904 6.07004Z" fill="#050B20"/>
</svg>
