<svg width="19" height="19" viewBox="0 0 19 19" fill="none" xmlns="http://www.w3.org/2000/svg">
<path d="M3.36031 2.1299C2.80031 2.1299 2.32031 2.3299 1.92031 2.7299C1.52031 3.1299 1.32031 3.6199 1.32031 4.1999C1.32031 4.7799 1.52031 5.2699 1.92031 5.6699C2.32031 6.0699 2.80031 6.2699 3.36031 6.2699C3.92031 6.2699 4.40031 6.0699 4.80031 5.6699C5.20031 5.2699 5.40031 4.7799 5.40031 4.1999C5.40031 3.6199 5.20031 3.1299 4.80031 2.7299C4.40031 2.3299 3.92031 2.1299 3.36031 2.1299ZM3.36031 3.2699C3.60031 3.2699 3.82031 3.3599 4.02031 3.5399C4.22031 3.7199 4.32031 3.9399 4.32031 4.1999C4.32031 4.4599 4.22031 4.6799 4.02031 4.8599C3.82031 5.0399 3.60031 5.1299 3.36031 5.1299C3.12031 5.1299 2.90031 5.0399 2.70031 4.8599C2.50031 4.6799 2.40031 4.4599 2.40031 4.1999C2.40031 3.9399 2.50031 3.7199 2.70031 3.5399C2.90031 3.3599 3.12031 3.2699 3.36031 3.2699ZM3.36031 12.6299C2.80031 12.6299 2.32031 12.8299 1.92031 13.2299C1.52031 13.6299 1.32031 14.1199 1.32031 14.6999C1.32031 15.2799 1.52031 15.7699 1.92031 16.1699C2.32031 16.5699 2.80031 16.7699 3.36031 16.7699C3.92031 16.7699 4.40031 16.5699 4.80031 16.1699C5.20031 15.7699 5.40031 15.2799 5.40031 14.6999C5.40031 14.1199 5.20031 13.6299 4.80031 13.2299C4.40031 12.8299 3.92031 12.6299 3.36031 12.6299ZM3.36031 13.7699C3.60031 13.7699 3.82031 13.8599 4.02031 14.0399C4.22031 14.2199 4.32031 14.4399 4.32031 14.6999C4.32031 14.9599 4.22031 15.1799 4.02031 15.3599C3.82031 15.5399 3.60031 15.6299 3.36031 15.6299C3.12031 15.6299 2.90031 15.5399 2.70031 15.3599C2.50031 15.1799 2.40031 14.9599 2.40031 14.6999C2.40031 14.4399 2.50031 14.2199 2.70031 14.0399C2.90031 13.8599 3.12031 13.7699 3.36031 13.7699ZM9.36031 2.1299C8.80031 2.1299 8.32031 2.3299 7.92031 2.7299C7.52031 3.1299 7.32031 3.6199 7.32031 4.1999C7.32031 4.7799 7.52031 5.2699 7.92031 5.6699C8.32031 6.0699 8.80031 6.2699 9.36031 6.2699C9.92031 6.2699 10.4003 6.0699 10.8003 5.6699C11.2003 5.2699 11.4003 4.7799 11.4003 4.1999C11.4003 3.6199 11.2003 3.1299 10.8003 2.7299C10.4003 2.3299 9.92031 2.1299 9.36031 2.1299ZM9.36031 3.2699C9.60031 3.2699 9.82031 3.3599 10.0203 3.5399C10.2203 3.7199 10.3203 3.9399 10.3203 4.1999C10.3203 4.4599 10.2203 4.6799 10.0203 4.8599C9.82031 5.0399 9.60031 5.1299 9.36031 5.1299C9.12031 5.1299 8.90031 5.0399 8.70031 4.8599C8.50031 4.6799 8.40031 4.4599 8.40031 4.1999C8.40031 3.9399 8.50031 3.7199 8.70031 3.5399C8.90031 3.3599 9.12031 3.2699 9.36031 3.2699ZM9.36031 12.6299C8.80031 12.6299 8.32031 12.8299 7.92031 13.2299C7.52031 13.6299 7.32031 14.1199 7.32031 14.6999C7.32031 15.2799 7.52031 15.7699 7.92031 16.1699C8.32031 16.5699 8.80031 16.7699 9.36031 16.7699C9.92031 16.7699 10.4003 16.5699 10.8003 16.1699C11.2003 15.7699 11.4003 15.2799 11.4003 14.6999C11.4003 14.1199 11.2003 13.6299 10.8003 13.2299C10.4003 12.8299 9.92031 12.6299 9.36031 12.6299ZM9.36031 13.7699C9.60031 13.7699 9.82031 13.8599 10.0203 14.0399C10.2203 14.2199 10.3203 14.4399 10.3203 14.6999C10.3203 14.9599 10.2203 15.1799 10.0203 15.3599C9.82031 15.5399 9.60031 15.6299 9.36031 15.6299C9.12031 15.6299 8.90031 15.5399 8.70031 15.3599C8.50031 15.1799 8.40031 14.9599 8.40031 14.6999C8.40031 14.4399 8.50031 14.2199 8.70031 14.0399C8.90031 13.8599 9.12031 13.7699 9.36031 13.7699ZM15.3603 2.1299C14.8003 2.1299 14.3203 2.3299 13.9203 2.7299C13.5203 3.1299 13.3203 3.6199 13.3203 4.1999C13.3203 4.7799 13.5203 5.2699 13.9203 5.6699C14.3203 6.0699 14.8003 6.2699 15.3603 6.2699C15.9203 6.2699 16.4003 6.0699 16.8003 5.6699C17.2003 5.2699 17.4003 4.7799 17.4003 4.1999C17.4003 3.6199 17.2003 3.1299 16.8003 2.7299C16.4003 2.3299 15.9203 2.1299 15.3603 2.1299ZM15.3603 3.2699C15.6003 3.2699 15.8203 3.3599 16.0203 3.5399C16.2203 3.7199 16.3203 3.9399 16.3203 4.1999C16.3203 4.4599 16.2203 4.6799 16.0203 4.8599C15.8203 5.0399 15.6003 5.1299 15.3603 5.1299C15.1203 5.1299 14.9003 5.0399 14.7003 4.8599C14.5003 4.6799 14.4003 4.4599 14.4003 4.1999C14.4003 3.9399 14.5003 3.7199 14.7003 3.5399C14.9003 3.3599 15.1203 3.2699 15.3603 3.2699ZM15.3603 12.6299C14.8003 12.6299 14.3203 12.8299 13.9203 13.2299C13.5203 13.6299 13.3203 14.1199 13.3203 14.6999C13.3203 15.2799 13.5203 15.7699 13.9203 16.1699C14.3203 16.5699 14.8003 16.7699 15.3603 16.7699C15.9203 16.7699 16.4003 16.5699 16.8003 16.1699C17.2003 15.7699 17.4003 15.2799 17.4003 14.6999C17.4003 14.1199 17.2003 13.6299 16.8003 13.2299C16.4003 12.8299 15.9203 12.6299 15.3603 12.6299ZM15.3603 13.7699C15.6003 13.7699 15.8203 13.8599 16.0203 14.0399C16.2203 14.2199 16.3203 14.4399 16.3203 14.6999C16.3203 14.9599 16.2203 15.1799 16.0203 15.3599C15.8203 15.5399 15.6003 15.6299 15.3603 15.6299C15.1203 15.6299 14.9003 15.5399 14.7003 15.3599C14.5003 15.1799 14.4003 14.9599 14.4003 14.6999C14.4003 14.4399 14.5003 14.2199 14.7003 14.0399C14.9003 13.8599 15.1203 13.7699 15.3603 13.7699ZM2.82031 5.6699V13.1699C2.82031 13.3299 2.87031 13.4699 2.97031 13.5899C3.07031 13.7099 3.20031 13.7699 3.36031 13.7699C3.52031 13.7699 3.65031 13.7099 3.75031 13.5899C3.85031 13.4699 3.90031 13.3499 3.90031 13.2299V5.6699C3.90031 5.5499 3.85031 5.4299 3.75031 5.3099C3.65031 5.1899 3.52031 5.1299 3.36031 5.1299C3.20031 5.1299 3.07031 5.1899 2.97031 5.3099C2.87031 5.4299 2.82031 5.5499 2.82031 5.6699ZM8.82031 5.6699V13.1699C8.82031 13.3299 8.87031 13.4699 8.97031 13.5899C9.07031 13.7099 9.20031 13.7699 9.36031 13.7699C9.52031 13.7699 9.65031 13.7099 9.75031 13.5899C9.85031 13.4699 9.90031 13.3499 9.90031 13.2299V5.6699C9.90031 5.5499 9.85031 5.4299 9.75031 5.3099C9.65031 5.1899 9.52031 5.1299 9.36031 5.1299C9.20031 5.1299 9.07031 5.1899 8.97031 5.3099C8.87031 5.4299 8.82031 5.5499 8.82031 5.6699ZM14.8203 5.6699V8.6699C14.8203 8.7499 14.8003 8.8099 14.7603 8.8499C14.7203 8.8899 14.6803 8.9099 14.6403 8.9099H3.36031C3.20031 8.9099 3.07031 8.9599 2.97031 9.0599C2.87031 9.1599 2.82031 9.2899 2.82031 9.4499C2.82031 9.6099 2.87031 9.7399 2.97031 9.8399C3.07031 9.9399 3.20031 9.9899 3.36031 9.9899H14.6403C15.0003 9.9899 15.3003 9.8699 15.5403 9.6299C15.7803 9.3899 15.9003 9.0699 15.9003 8.6699V5.7299C15.9003 5.5699 15.8503 5.4299 15.7503 5.3099C15.6503 5.1899 15.5203 5.1299 15.3603 5.1299C15.2003 5.1299 15.0703 5.1899 14.9703 5.3099C14.8703 5.4299 14.8203 5.5499 14.8203 5.6699Z" fill="#050B20"/>
</svg>
